<svg width="8640" height="4180" viewBox="0 0 8640 4180" fill="none" xmlns="http://www.w3.org/2000/svg">
<path d="M385.281 3696.48C230.623 3674.74 123.084 3623.78 62.6648 3543.61C6.25445 3460.41 -12.0708 3348.51 7.68905 3207.91C21.5209 3109.49 54.9605 3024.58 108.008 2953.18C164.57 2882.27 233.188 2814.85 313.861 2750.92L1372.14 1915.73C1529.97 1787.37 1644.42 1674.42 1715.48 1576.87C1790.05 1479.82 1834.75 1378.57 1849.57 1273.12C1868.34 1139.55 1838.48 1033.2 1759.99 954.069C1681.5 874.935 1559.66 823.759 1394.46 800.541C1310.1 788.685 1218.74 788.39 1120.37 799.657C1022.51 807.409 915.138 831.748 798.271 872.673C697.439 901.515 609.593 901.714 534.734 873.272C463.39 845.323 405.555 797.766 361.228 730.602C320.417 663.932 298.415 590.944 295.223 511.639C295.546 432.828 318.469 358.985 363.993 290.111C410.01 217.722 482.172 163.345 580.476 126.979C754.514 61.829 930.367 22.0245 1108.03 7.56559C1289.22 -6.39912 1467.68 -1.03159 1643.43 23.6682C1931.66 64.1758 2166.5 140.194 2347.97 251.723C2532.95 363.745 2665.05 507.764 2744.26 683.778C2823.96 856.277 2847.26 1060.28 2814.17 1295.78C2793.42 1443.41 2750.32 1584.31 2684.86 1718.49C2622.92 1853.16 2532.86 1983.88 2414.69 2110.64C2300.02 2237.9 2150.73 2369.26 1966.81 2504.71L994.12 3228.26L1028.21 2985.72L2330.5 3168.75C2460.55 3187.03 2554.28 3234.25 2611.68 3310.42C2672.59 3387.09 2694.15 3488.69 2676.37 3615.23C2658.59 3741.76 2609.6 3835.24 2529.43 3895.66C2453.26 3953.06 2350.14 3972.62 2220.09 3954.34L385.281 3696.48Z" fill="url(#paint0_linear_1827_551)"/>
<path d="M4499.44 3824.18C4345.64 3851.3 4186.18 3866.8 4021.07 3870.68C3860.07 3877.45 3709.66 3862.52 3569.85 3825.9C3476.29 3806.35 3405.05 3770.26 3356.12 3717.61C3310.69 3664.35 3282.12 3604.51 3270.4 3538.1C3262.19 3471.06 3270.94 3408.25 3296.65 3349.65C3325.24 3286.94 3367.39 3239.86 3423.12 3208.41C3481.73 3172.85 3551.95 3162.27 3633.78 3176.67C3789.84 3203.22 3927.7 3218.55 4047.37 3222.68C4169.92 3222.7 4285.38 3213.16 4393.74 3194.05C4523.08 3171.24 4612.63 3137.43 4662.39 3092.61C4711.54 3044.3 4730.88 2990.43 4720.4 2931.01C4711.15 2878.57 4684.84 2841.76 4641.46 2820.58C4601.57 2798.78 4547.49 2788.49 4479.23 2789.71L3880.57 2797.96C3657.07 2797.72 3475.41 2748.66 3335.61 2650.76C3195.18 2549.37 3107.71 2400.8 3073.2 2205.05C3041.15 2023.28 3064.4 1858.79 3142.97 1711.58C3224.42 1560.26 3348.11 1433.92 3514.06 1332.58C3682.89 1227.12 3884.4 1153.74 4118.6 1112.44C4275.91 1084.71 4421.38 1071.67 4555.03 1073.34C4688.07 1071.5 4821 1089.51 4953.82 1127.37C5036.27 1145.27 5098.46 1181.15 5140.4 1235.03C5182.34 1288.91 5205.67 1349.67 5210.39 1417.32C5214.49 1481.47 5202.25 1544.91 5173.66 1607.61C5147.95 1666.21 5105.48 1711.54 5046.26 1743.61C4986.42 1772.19 4912.09 1779.89 4823.27 1766.71C4699.9 1741.61 4590.92 1726.59 4496.34 1721.64C4405.25 1716.07 4321.26 1720.07 4244.36 1733.63C4101.04 1758.9 4003.06 1796 3950.41 1844.93C3897.77 1893.86 3876.68 1948.04 3887.16 2007.46C3895.17 2052.91 3917.68 2088.58 3954.69 2114.5C3991.08 2136.91 4043.41 2147.51 4111.68 2146.29L4711.26 2143.29C4941.14 2138.79 5125.98 2185.5 5265.79 2283.39C5408.47 2377.17 5497.38 2523.68 5532.51 2722.93C5582.44 3006.07 5512.91 3245.4 5323.92 3440.92C5134.31 3632.94 4859.49 3760.69 4499.44 3824.18Z" fill="url(#paint1_linear_1827_551)"/>
<path d="M6307.28 4055.84C6158.57 4045.44 6046.34 3996.68 5970.59 3909.54C5894.85 3822.41 5862.42 3700.94 5873.32 3545.14L6074.99 661.115C6085.88 505.317 6134.9 389.545 6222.03 313.801C6309.17 238.056 6427.09 205.383 6575.81 215.782C6728.06 226.429 6842.07 275.32 6917.81 362.454C6997.1 449.836 7031.29 571.426 7020.4 727.224L6939.43 1885.08L6854.45 1879.14C6951.07 1718.66 7080.37 1599.61 7242.36 1521.98C7407.89 1444.61 7591.57 1412.97 7793.4 1427.09C8002.31 1441.69 8171.19 1494.42 8300.05 1585.27C8429.15 1672.58 8521.4 1803.57 8576.79 1978.23C8632.43 2149.36 8651.34 2362.39 8633.51 2617.33L8555.52 3732.7C8544.62 3888.5 8495.61 4004.27 8408.47 4080.01C8321.34 4155.76 8201.64 4188.31 8049.39 4177.66C7897.13 4167.01 7783.13 4118.12 7707.38 4030.99C7631.64 3943.85 7599.21 3822.39 7610.11 3666.59L7685.5 2588.4C7696.64 2429.06 7676.24 2313.77 7624.29 2242.54C7575.88 2171.54 7498.57 2132.34 7392.34 2124.91C7250.71 2115 7134.18 2153.11 7042.76 2239.23C6951.59 2321.81 6900.68 2439.23 6890.04 2591.49L6818.73 3611.25C6796.44 3929.93 6625.96 4078.13 6307.28 4055.84Z" fill="url(#paint2_linear_1827_551)"/>
<defs>
<linearGradient id="paint0_linear_1827_551" x1="-2493.8" y1="-1246" x2="5405.07" y2="-5737.46" gradientUnits="userSpaceOnUse">
<stop stop-color="#FF2E00"/>
<stop offset="1" stop-color="#FFEA00"/>
</linearGradient>
<linearGradient id="paint1_linear_1827_551" x1="-2493.8" y1="-1246" x2="5405.07" y2="-5737.46" gradientUnits="userSpaceOnUse">
<stop stop-color="#FF2E00"/>
<stop offset="1" stop-color="#FFEA00"/>
</linearGradient>
<linearGradient id="paint2_linear_1827_551" x1="-2493.8" y1="-1246" x2="5405.07" y2="-5737.46" gradientUnits="userSpaceOnUse">
<stop stop-color="#FF2E00"/>
<stop offset="1" stop-color="#FFEA00"/>
</linearGradient>
</defs>
</svg>
